<?xml version="1.0" encoding="UTF-8" standalone="no"?>
<svg width="100px" height="100px" viewBox="0 0 100 100" version="1.1" xmlns="http://www.w3.org/2000/svg" xmlns:xlink="http://www.w3.org/1999/xlink" xmlns:sketch="http://www.bohemiancoding.com/sketch/ns">
    <!-- Generator: Sketch 3.1.1 (8761) - http://www.bohemiancoding.com/sketch -->
    <title>Ad Wizard</title>
    <desc>Created with Sketch.</desc>
    <defs></defs>
    <g id="Page-1" stroke="none" stroke-width="1" fill="none" fill-rule="evenodd" sketch:type="MSPage">
        <circle id="circle" fill="#2297D7" sketch:type="MSShapeGroup" cx="50" cy="50" r="50"></circle>
        <path d="M56.6997118,14.59 C59.8897118,14.1 62.4997105,13.83 66.3297118,13.83 C65.4997105,20.0000001 64.4997105,23.0000001 64.7397118,31.29 C71.0297118,34.55 76.5597118,39.73 79.0297118,46.49 C82.4197118,55.15 80.0497118,65.5 73.6197118,72.13 C62.9797118,83.56 43.8997118,85.11 31.1897118,76.26 C24.4997118,71.75 19.7097118,64.17 19.4597118,56 C18.9797118,47.15 23.9097118,38.52 31.2697118,33.78 C32.7897118,32.68 34.6997118,31.85 35.4697118,30 C39.3797118,21.76 47.6497118,15.73 56.6997118,14.59 Z" id="Shape" fill="#5D5D5D" sketch:type="MSShapeGroup"></path>
        <path d="M45.1297118,25.7 C46.6697118,27.66 48.6397118,28.03 50.7297118,26.44 C48.7297118,28.1 48.4597118,30.01 49.9097118,32.17 C49.3097118,31.64 48.0997118,30.57 47.4897118,30.04 C46.4397118,30.44 45.3997118,30.84 44.3497118,31.24 C45.0297118,30.46 45.7197118,29.68 46.4097118,28.9 C45.9997118,27.82 45.5697118,26.76 45.1297118,25.7 L45.1297118,25.7 Z" id="Shape" fill="#FCFCFC" sketch:type="MSShapeGroup"></path>
        <path d="M39.5197118,33.57 C40.7697118,34.57 42.0197118,35.58 43.2697118,36.59 C44.7197118,35.95 46.1697118,35.3 47.6197118,34.67 C46.6297118,35.83 45.6297118,36.99 44.6197118,38.14 C45.2397118,39.75 45.8997118,41.36 46.5797118,42.95 C45.1197118,42.09 43.9697118,39.75 42.0097118,40.25 C41.0797118,40.61 39.2197118,41.32 38.2797118,41.68 C39.3097118,40.47 40.3197118,39.25 41.3397118,38.04 C40.7397118,36.54 40.1397118,35.05 39.5197118,33.57 L39.5197118,33.57 Z" id="Shape" fill="#FCFCFC" sketch:type="MSShapeGroup"></path>
        <path d="M67.4859314,43.0520304 C67.3546715,41.6451703 67.0797118,39.57 66.7297118,37.8 C68.6197118,41.94 69.9897118,46.46 69.0997118,51.05 C67.5697118,60.12 58.7497118,67.53 49.4497118,66.81 C39.4997118,67.04 30.4697118,57.91 30.6897118,47.98 C30.4097118,44.64 31.7697118,41.53 33.0297118,38.53 C32.5897118,41.53 31.7397118,44.65 32.9397118,47.59 C35.0797118,55.22 42.9997118,60.27 50.7197118,60.14 C55.9597118,59.58 61.1597118,57.12 64.1797118,52.69 C66.3497118,49.94 67.4859314,43.0520304 67.4859314,43.0520304 Z" id="Shape" fill="#FCFCFC" sketch:type="MSShapeGroup"></path>
    </g>
</svg>