<svg xmlns="http://www.w3.org/2000/svg" width="100" height="100" viewBox="0 0 100 100">
    <path fill="#ae1f00" d="M100 50c0 27.614-22.386 50-50 50S0 77.614 0 50 22.386 0 50 0a50 50 0 0 1 50 50z"/>
    <path fill="#ffffff" d="M69.65 73.333h-39.3a7 7 0 0 1-7.017-7.017V33.683a7 7 0 0 1 7.017-7.017h39.3a7 7 0 0 1 7.017 7.017v32.633a7 7 0 0 1-7.017 7.017z"/>
    <path fill="#ffe9b3" d="M76.667 33.683v32.633a7 7 0 0 1-7.017 7.017H50V26.667h19.65a7 7 0 0 1 7.017 7.017z"/>
    <path fill="#ae1f00" d="M55.483 60.933c-.826.764-1.787 1.369-2.833 1.783v4.917h-5.517v-4.517a13 13 0 0 1-5.817-3.5L45 55.383c1.117 1.424 2.766 2.333 4.567 2.517.73-.031 1.419-.349 1.917-.883.555-.465.888-1.143.917-1.867 0-1.333-1.417-2.517-4.233-3.533-1.218-.388-2.375-.949-3.433-1.667-.727-.606-1.299-1.378-1.667-2.25-.452-.941-.686-1.972-.683-3.017-.085-2.081.721-4.1 2.217-5.55a7.5 7.5 0 0 1 2.633-1.667V32.3h5.517v4.9c1.802.343 3.472 1.186 4.817 2.433L54.133 43.4a9.5 9.5 0 0 0-3.9-1.667c-.604-.007-1.182.248-1.583.7-.446.438-.687 1.042-.667 1.667 0 1.25 1.15 2.35 3.433 3.333a22.65 22.65 0 0 1 3.817 1.933c.893.629 1.629 1.456 2.15 2.417.576 1.016.875 2.165.867 3.333a7.55 7.55 0 0 1-2.767 5.817h0z"/>
</svg>
