<svg xmlns="http://www.w3.org/2000/svg" width="486" height="486" viewBox="0 0 486 486">
    <path d="M30.328 454.886h454.884v30.326H.001V0h30.327 30.324v30.327H30.328v60.651h30.324v30.327H30.328v60.651h30.324v30.327H30.328v60.648h30.324v30.327H30.328v60.648h30.324v30.331H30.328v60.649h0zm90.977-60.649c16.746 0 30.324-13.562 30.324-30.331 0-9.974-5.138-18.411-12.587-23.956l39.238-98.081c1.263.145 2.371.737 3.675.737 3.465 0 6.677-.887 9.787-1.953l28.43 42.615c-4.768 5.357-7.89 12.266-7.89 19.989 0 16.764 13.579 30.327 30.324 30.327s30.326-13.563 30.326-30.327c0-10.604-5.777-19.48-14.024-24.903l42.363-127.136c.686.056 1.274.411 1.983.411 5.601 0 10.548-1.923 15.047-4.56l50.171 50.169c-2.637 4.501-4.564 9.443-4.564 15.044 0 16.762 13.562 30.324 30.327 30.324 16.759 0 30.326-13.562 30.326-30.324 0-10.604-5.772-19.487-14.034-24.936l42.378-127.11c.677.061 1.273.416 1.983.416a30.31 30.31 0 0 0 30.322-30.324C485.212 13.567 471.648 0 454.89 0c-16.765 0-30.327 13.567-30.327 30.327 0 10.601 5.773 19.485 14.039 24.936l-42.387 127.108c-.677-.061-1.27-.416-1.979-.416-5.597 0-10.543 1.925-15.047 4.562l-50.162-50.168c2.633-4.504 4.56-9.446 4.56-15.044 0-16.764-13.566-30.327-30.331-30.327-16.76 0-30.322 13.565-30.322 30.327 0 10.602 5.778 19.485 14.039 24.936l-42.396 127.078c-.681-.028-1.274-.388-1.969-.388-3.465 0-6.679.892-9.787 1.988l-28.43-42.675c4.766-5.33 7.893-12.2 7.893-19.961 0-16.764-13.579-30.327-30.327-30.327s-30.327 13.565-30.327 30.327c0 10.009 5.141 18.421 12.587 23.928l-39.241 98.116c-1.257-.145-2.368-.741-3.67-.741-16.748 0-30.327 13.562-30.327 30.321 0 16.767 13.579 30.33 30.326 30.33h0z"/>
</svg>
