<svg xmlns="http://www.w3.org/2000/svg" width="160" height="140" viewBox="0 0 160 140">
    <path d="M138.95 140H21.05a21 21 0 0 1-14.899-6.151A21 21 0 0 1 0 118.95v-97.9A21 21 0 0 1 6.151 6.151 21 21 0 0 1 21.05 0h117.9a21 21 0 0 1 14.899 6.151A21 21 0 0 1 160 21.05v97.9A21 21 0 0 1 138.95 140zm-42.5-37.2h0a22.65 22.65 0 0 0 8.3-17.45 20 20 0 0 0-2.6-10 21.25 21.25 0 0 0-6.45-7.25 67.95 67.95 0 0 0-11.45-5.8c-6.85-2.95-10.3-6.25-10.3-10a6.7 6.7 0 0 1 2-5 6.25 6.25 0 0 1 4.75-2.1 28.5 28.5 0 0 1 11.7 5l10.3-11.3a29.3 29.3 0 0 0-14.45-7.3V16.9H71.7v15.5a22.5 22.5 0 0 0-7.9 5 21.95 21.95 0 0 0-6.65 16.65 20.8 20.8 0 0 0 2.05 9.05 17.8 17.8 0 0 0 5 6.75 40 40 0 0 0 10.3 5c8.45 3.05 12.7 6.6 12.7 10.6a7.7 7.7 0 0 1-2.75 5.6 8.35 8.35 0 0 1-5.75 2.65A20 20 0 0 1 65 86.15l-11.05 12.7a39 39 0 0 0 17.45 10.5v13.55h16.55v-14.75a27.35 27.35 0 0 0 8.5-5.35z"/>
</svg>
